<?xml version="1.0" encoding="UTF-8"?>
<svg id="Layer_1" xmlns="http://www.w3.org/2000/svg" version="1.1" viewBox="0 0 841.89 595.28">
  <!-- Generator: Adobe Illustrator 29.8.1, SVG Export Plug-In . SVG Version: 2.1.1 Build 2)  -->
  <defs>
    <style>
      .st0 {
        fill: #231f20;
      }

      .st1 {
        fill: #1d407d;
      }
    </style>
  </defs>
  <path class="st1" d="M160.38,239.67H47.62v75.2h37.57v37.57h75.2v-112.77ZM122.79,277.26v37.57h-37.57v-37.57h37.57Z"/>
  <g>
    <path class="st0" d="M196.94,239.67h17.84c5.07,0,9.21,1.28,12.36,3.79,3.15,2.51,4.72,6.18,4.72,11.02s-1.69,8.75-5.02,11.31c-3.32,2.51-7.58,3.79-12.77,3.79h-5.66v15.74h-11.49v-45.66ZM208.43,259.79h5.48c4.26,0,6.41-1.63,6.41-4.84,0-3.44-2.16-5.19-6.47-5.19h-5.42v10.03Z"/>
    <path class="st0" d="M248.96,285.33h-11.49v-45.66h18.72c5.19,0,9.33,1.22,12.42,3.73,3.09,2.51,4.67,6.12,4.67,10.96,0,7-3.67,11.25-9.1,13.18l10.15,17.79h-12.48l-9.16-16.04h-3.73v16.04ZM248.96,259.49h6.36c4.14,0,6.41-1.69,6.41-4.72s-1.98-5.19-6.47-5.19h-6.3v9.91Z"/>
    <path class="st0" d="M284.24,245.79c4.72-4.61,10.38-6.88,16.97-6.88s12.19,2.27,16.79,6.76c4.61,4.49,6.94,10.03,6.94,16.62s-2.33,12.25-7,16.85c-4.61,4.61-10.26,6.88-16.85,6.88s-12.25-2.27-16.91-6.82c-4.61-4.55-6.94-10.15-6.94-16.74s2.33-12.13,7-16.68ZM288.97,262.41c0,3.44,1.17,6.47,3.5,9.04,2.33,2.51,5.19,3.79,8.63,3.79s6.3-1.28,8.63-3.79c2.33-2.57,3.5-5.6,3.5-9.04s-1.17-6.47-3.5-8.98c-2.33-2.51-5.19-3.79-8.63-3.79s-6.3,1.28-8.63,3.79c-2.33,2.51-3.5,5.54-3.5,8.98Z"/>
    <path class="st0" d="M337.72,239.67l9.91,30.21,9.97-30.21h12.42l-16.44,45.66h-12.13l-16.44-45.66h12.71Z"/>
    <path class="st0" d="M386.24,285.33h-11.55v-45.66h11.55v45.66Z"/>
    <path class="st0" d="M395.05,239.67h15.1c7.46,0,13.59,1.98,18.37,5.89,4.78,3.91,7.17,9.51,7.17,16.79,0,4.84-1.17,9.04-3.5,12.6-4.61,7-12.42,10.38-21.98,10.38h-15.16v-45.66ZM406.54,274.66h3.67c4.02,0,7.29-1.05,9.85-3.21,2.57-2.16,3.85-5.13,3.85-9.04s-1.28-6.82-3.91-8.98c-2.57-2.16-5.83-3.21-9.74-3.21h-3.73v24.43Z"/>
    <path class="st0" d="M474.01,249.87h-20.53v7.46h18.66v9.86h-18.66v7.87h20.7v10.26h-32.07v-45.66h31.9v10.2Z"/>
    <path class="st0" d="M492.84,257.8v27.52h-11.43v-45.66h12.71l16.79,25.72h.06v-25.72h11.43v45.66h-11.6l-17.9-27.52h-.06Z"/>
    <path class="st0" d="M540.49,250.11h-12.95v-10.44h37.32v10.44h-12.89v35.22h-11.49v-35.22Z"/>
  </g>
  <g>
    <path class="st0" d="M196.94,340.3l4.71-2.45c2.65,6.44,6.57,10.02,13.27,10.02,3.12,0,5.77-.86,7.9-2.52,2.19-1.66,3.25-3.85,3.25-6.5,0-5.31-4.11-8.43-12.07-10.35-10.62-2.59-15.52-7.17-15.52-14.4,0-4.31,1.59-7.7,4.78-10.28,3.18-2.59,7.03-3.91,11.54-3.91,8.23,0,13.93,4.25,16.39,10.81l-4.64,2.59c-2.19-5.51-6.17-8.29-11.88-8.29-2.92,0-5.44.8-7.56,2.46-2.12,1.66-3.18,3.78-3.18,6.37,0,4.71,3.18,7.23,11.08,9.29,6.1,1.53,10.48,3.72,13.07,6.57,2.39,2.59,3.58,5.51,3.58,8.76,0,3.98-1.53,7.43-4.58,10.28-3.05,2.85-7.1,4.25-12.14,4.25-8.82,0-14.8-4.25-17.98-12.67Z"/>
    <path class="st0" d="M279.61,300.5v31.65c0,13.2-7.23,20.83-19.51,20.83-6.17,0-11.01-1.86-14.4-5.57-3.38-3.72-5.11-8.69-5.11-14.93v-31.98h5.44v31.71c0,10.81,5.57,15.66,14.26,15.66s13.87-5.57,13.87-15.33v-32.05h5.44Z"/>
    <path class="st0" d="M334.42,352.44h-5.84l-31.12-44.25v44.25h-5.37v-51.95h6.3l30.65,43.39v-43.39h5.37v51.95Z"/>
    <path class="st0" d="M347.88,300.5l13.6,44.05h.13l13.73-44.05h6.17l13.8,44.32h.13l13.67-44.32h5.51l-16.32,51.95h-6.1l-13.87-44.58-13.93,44.58h-5.97l-16.25-51.95h5.71Z"/>
    <path class="st0" d="M462.6,345.28c-4.98,5.11-11.21,7.7-18.71,7.7s-13.6-2.52-18.58-7.56c-4.98-5.11-7.43-11.35-7.43-18.78s2.52-13.87,7.5-18.97c4.98-5.11,11.21-7.7,18.71-7.7s13.53,2.52,18.51,7.63c4.98,5.04,7.5,11.28,7.5,18.71s-2.52,13.87-7.5,18.98ZM458.62,311.38c-3.91-4.18-8.82-6.3-14.73-6.3s-10.75,2.06-14.6,6.24c-3.85,4.11-5.77,9.09-5.77,14.99s1.92,11.08,5.84,15.26c3.91,4.18,8.82,6.3,14.73,6.3s10.75-2.06,14.6-6.17c3.85-4.18,5.77-9.16,5.77-15.06s-1.92-11.08-5.84-15.26Z"/>
    <path class="st0" d="M485.02,331.41v21.03h-5.44v-51.95h17.98c6.04,0,10.55,1.46,13.6,4.31,3.12,2.85,4.64,6.5,4.64,10.81s-1.33,7.63-4.05,10.22c-2.72,2.59-6.1,4.11-10.22,4.64l16.06,21.96h-6.63l-15.33-21.03h-10.62ZM485.02,326.44h12.07c4.38,0,7.7-1.06,9.89-3.12,2.19-2.06,3.32-4.58,3.32-7.5,0-5.84-3.98-10.22-13.07-10.22h-12.21v20.83Z"/>
    <path class="st0" d="M536.58,305.6h-17.38v-5.11h40.21v5.11h-17.32v46.84h-5.51v-46.84Z"/>
    <path class="st0" d="M572.14,352.44h-5.44v-51.95h5.44v22.96h29.59v-22.96h5.44v51.95h-5.44v-23.75h-29.59v23.75Z"/>
    <path class="st0" d="M641.27,345.61c-4.98-4.98-7.43-11.28-7.43-18.98s2.52-14.13,7.63-19.11c5.11-5.04,11.28-7.56,18.51-7.56,5.97,0,10.95,1.59,14.99,4.71,4.05,3.12,6.77,6.83,8.16,11.21l-4.91,2.26c-1.26-3.65-3.38-6.77-6.44-9.22-2.99-2.52-6.97-3.78-11.94-3.78-5.64,0-10.42,1.99-14.4,5.97-3.91,3.98-5.9,9.02-5.9,15.19s1.92,11.35,5.77,15.39c3.85,4.05,8.69,6.1,14.6,6.1,9.22,0,15.39-4.98,18.38-13.14l4.91,2.32c-1.53,4.45-4.38,8.23-8.49,11.34-4.05,3.12-9.09,4.64-14.99,4.64-7.3,0-13.47-2.46-18.44-7.36Z"/>
    <path class="st0" d="M697.14,352.44h-5.44v-51.95h5.44v51.95Z"/>
    <path class="st0" d="M721.82,305.6h-17.38v-5.11h40.21v5.11h-17.32v46.84h-5.51v-46.84Z"/>
    <path class="st0" d="M772.04,330.48v21.96h-5.51v-21.89l-20.1-30.06h6.57l16.39,24.81,16.59-24.81h6.24l-20.17,29.99Z"/>
  </g>
</svg>